<svg width="300" height="300" viewBox="0 0 300 300" fill="none" xmlns="http://www.w3.org/2000/svg">
<g opacity="0.3">
<path d="M84.3411 258.066C95.9746 257.931 107.171 253.938 118.598 251.767C132.325 249.166 146.4 249.189 160.12 251.834C174.614 254.646 188.563 260.355 203.281 261.513C227.847 263.442 247.544 251.39 261.421 231.077C275.298 210.764 277.296 182.976 266.471 160.897C262.786 153.384 257.763 146.545 254.461 138.858C243.651 113.624 261.7 72.941 245.158 51.0081C236.145 39.0519 220.979 32.7476 205.999 31.8478C191.019 30.948 176.127 38.2758 162.129 43.6971C148.634 48.9104 130.559 60.8779 116.392 57.9198C106.527 55.839 98.202 49.321 88.632 46.1491C68.2801 39.4006 44.6855 49.8721 32.768 67.6377C20.8506 85.4033 19.4585 108.731 25.2125 129.314C28.6682 141.686 34.5641 153.688 34.5969 166.527C34.6242 174.963 32.102 183.162 30.7372 191.485C25.4636 223.744 50.1283 258.454 84.3411 258.066Z" stroke="#2C54AC" stroke-width="1.05" stroke-miterlimit="10" stroke-dasharray="4.32 4.32"/>
</g>
<path opacity="0.3" d="M71.0549 248.781C82.6066 250.136 94.2237 247.605 105.835 246.908C119.764 246.084 133.72 247.906 147.009 252.284C161.022 256.918 174.114 264.37 188.564 267.396C212.699 272.457 233.723 258.021 250.095 239.642C266.467 221.263 272.035 193.965 264.136 170.688C261.45 162.764 257.35 155.341 255.068 147.293C247.589 120.861 269.169 93.4903 258.021 68.2732C251.956 54.5511 239.4 45.5754 224.66 42.7692C209.92 39.9629 189.721 41.9818 175.151 45.553C161.093 48.9947 142.276 59.1063 128.6 54.3823C119.085 51.0812 111.677 43.5396 102.587 39.198C83.2671 29.9187 58.5206 37.2747 44.414 53.3701C30.3075 69.4654 25.9237 92.3937 28.9809 113.539C30.8206 126.255 35.117 138.903 33.5011 151.646C32.442 160.009 28.8826 167.826 26.4642 175.902C17.0744 207.221 37.0659 244.793 71.0549 248.781Z" fill="#52D2CD"/>
<g style="mix-blend-mode:multiply" opacity="0.4">
<path d="M256.705 127.07L256.252 124.742C255.973 123.504 255.91 122.224 256.066 120.963C256.207 119.983 256.5 119.034 256.934 118.151C257.328 117.374 257.767 116.623 258.25 115.901C258.848 115.071 259.395 114.203 259.888 113.303C260.357 112.374 260.48 111.299 260.232 110.283C260.136 109.698 259.858 109.161 259.44 108.753C259.058 108.39 258.604 108.117 258.108 107.955C257.667 107.801 257.196 107.767 256.738 107.854C255.999 107.978 255.316 108.336 254.783 108.877C254.306 109.391 253.943 110.005 253.719 110.677C253.479 111.366 253.296 112.076 253.173 112.797L247.807 111.447C247.912 110.698 248.078 109.958 248.303 109.237C248.618 108.24 249.066 107.294 249.635 106.425C250.316 105.381 251.176 104.474 252.174 103.748C253.401 102.892 254.791 102.317 256.252 102.061C257.747 101.725 259.293 101.708 260.794 102.011C262.161 102.295 263.416 102.987 264.403 104.001C265.502 105.239 266.221 106.785 266.466 108.444C266.778 109.769 266.82 111.145 266.592 112.488C266.386 113.494 266.017 114.458 265.5 115.339C265.009 116.16 264.512 116.97 264.02 117.774C263.612 118.391 263.247 119.038 262.929 119.709C262.596 120.434 262.382 121.212 262.295 122.009C262.2 122.991 262.259 123.982 262.47 124.944L262.65 125.867L256.705 127.07ZM261.504 135.72C260.6 135.947 259.647 135.827 258.823 135.382C258.448 135.175 258.124 134.882 257.877 134.525C257.63 134.168 257.466 133.757 257.398 133.324C257.305 132.893 257.305 132.446 257.399 132.015C257.494 131.584 257.68 131.18 257.944 130.833C258.509 130.068 259.334 129.554 260.254 129.393C261.151 129.171 262.097 129.318 262.89 129.803C263.256 130.028 263.57 130.33 263.812 130.69C264.054 131.05 264.218 131.459 264.293 131.89C264.394 132.311 264.402 132.751 264.317 133.176C264.232 133.601 264.056 134.001 263.802 134.347C263.229 135.084 262.409 135.574 261.504 135.72Z" fill="#41938F"/>
<path d="M34.5963 160.903L33.7229 158.94C33.2277 157.901 32.9136 156.779 32.7948 155.628C32.72 154.728 32.7882 153.822 32.9968 152.945C33.1891 152.181 33.4279 151.429 33.7119 150.696C34.0643 149.829 34.3687 148.943 34.6236 148.041C34.8482 147.117 34.7396 146.14 34.3179 145.291C34.1146 144.794 33.7603 144.377 33.308 144.105C32.8962 143.863 32.4375 143.719 31.965 143.683C31.542 143.642 31.1158 143.712 30.7258 143.885C30.0964 144.154 29.564 144.618 29.2026 145.213C28.8823 145.771 28.683 146.395 28.6185 147.04C28.5474 147.703 28.531 148.371 28.5694 149.037L23.536 148.986C23.4828 148.299 23.4828 147.609 23.536 146.922C23.6103 145.96 23.8143 145.014 24.142 144.11C24.5364 143.038 25.1173 142.049 25.8562 141.192C26.7682 140.16 27.8854 139.343 29.1317 138.796C30.3892 138.176 31.7566 137.828 33.1496 137.772C34.4192 137.728 35.6729 138.073 36.7527 138.762C37.9796 139.623 38.9299 140.841 39.4823 142.26C40.0226 143.368 40.3384 144.577 40.4104 145.814C40.4327 146.752 40.3036 147.687 40.0282 148.581C39.7553 149.414 39.4823 150.235 39.2094 151.056C38.9829 151.69 38.8005 152.34 38.6634 153.002C38.5144 153.716 38.4812 154.452 38.5652 155.178C38.6769 156.069 38.9295 156.935 39.3131 157.742L39.657 158.524L34.5963 160.903ZM40.6015 167.545C39.8446 167.942 38.9734 168.042 38.1503 167.826C37.7766 167.72 37.4316 167.527 37.142 167.262C36.8523 166.996 36.6257 166.666 36.4798 166.296C36.3125 165.931 36.2258 165.533 36.2258 165.129C36.2258 164.726 36.3125 164.327 36.4798 163.962C36.828 163.163 37.4584 162.529 38.2431 162.191C38.9921 161.798 39.8619 161.727 40.6615 161.994C41.0305 162.115 41.3703 162.315 41.6583 162.582C41.9463 162.849 42.176 163.176 42.332 163.541C42.5048 163.893 42.5993 164.281 42.6087 164.676C42.6182 165.071 42.5423 165.463 42.3866 165.824C42.0271 166.61 41.3908 167.225 40.6069 167.545H40.6015Z" fill="#41938F"/>
<path d="M150.224 38.3151L150.486 36.5211C150.602 35.5538 150.883 34.6152 151.316 33.7486C151.664 33.0812 152.116 32.477 152.654 31.9602C153.133 31.508 153.64 31.0872 154.171 30.7005C154.801 30.2585 155.407 29.7797 155.984 29.2664C156.556 28.723 156.915 27.9829 156.994 27.1856C157.072 26.7384 157.009 26.2771 156.814 25.8696C156.631 25.5057 156.374 25.1871 156.06 24.9361C155.779 24.7072 155.447 24.5545 155.094 24.4918C154.54 24.3905 153.968 24.465 153.456 24.7055C152.979 24.9408 152.558 25.2805 152.222 25.7009C151.877 26.1351 151.566 26.5978 151.294 27.0844L147.795 24.6718C148.063 24.1638 148.369 23.6786 148.712 23.2208C149.192 22.5793 149.758 22.0112 150.394 21.5337C151.149 20.9672 151.998 20.5461 152.899 20.2908C154.002 19.9982 155.152 19.9521 156.273 20.1558C157.432 20.3181 158.546 20.7219 159.549 21.3425C160.461 21.9143 161.189 22.7519 161.639 23.7495C162.118 24.9374 162.243 26.2448 162 27.5062C161.888 28.5422 161.57 29.5435 161.066 30.4474C160.665 31.1202 160.156 31.7174 159.559 32.2133L157.862 33.5743C157.418 33.9185 156.999 34.2943 156.606 34.699C156.181 35.1328 155.828 35.6365 155.563 36.1893C155.244 36.8699 155.034 37.5992 154.941 38.3489L154.837 39.0631L150.224 38.3151ZM151.485 45.8398C150.775 45.7601 150.117 45.4162 149.635 44.8725C149.42 44.6214 149.263 44.3235 149.176 44.0011C149.089 43.6787 149.074 43.3402 149.132 43.011C149.176 42.6744 149.292 42.352 149.471 42.067C149.651 41.7821 149.889 41.5417 150.17 41.3632C150.771 40.9638 151.498 40.8168 152.201 40.9527C152.903 41.0314 153.547 41.3933 153.991 41.9594C154.198 42.2184 154.348 42.5203 154.431 42.8445C154.513 43.1687 154.527 43.5075 154.472 43.8377C154.436 44.1679 154.33 44.4859 154.161 44.7689C153.992 45.0518 153.764 45.2927 153.494 45.4743C152.893 45.8509 152.176 45.9814 151.485 45.8398Z" fill="#41938F"/>
<path d="M134.805 58.9207L134.537 57.4698C134.376 56.6974 134.347 55.9019 134.45 55.119C134.541 54.5135 134.725 53.9269 134.996 53.3813C135.243 52.9037 135.52 52.4434 135.826 52.0035C136.204 51.4907 136.552 50.9555 136.869 50.4007C137.164 49.8243 137.248 49.1571 137.103 48.5223C137.047 48.1589 136.878 47.8238 136.623 47.5663C136.39 47.3374 136.11 47.1645 135.804 47.0601C135.531 46.9623 135.238 46.9372 134.952 46.987C134.492 47.0573 134.065 47.2735 133.729 47.6056C133.426 47.9247 133.195 48.3088 133.053 48.7304C132.899 49.1581 132.78 49.5983 132.698 50.0464L129.373 49.1634C129.444 48.699 129.553 48.2418 129.701 47.7968C129.902 47.1732 130.189 46.5824 130.552 46.0422C130.981 45.3981 131.521 44.8413 132.146 44.4001C132.91 43.8674 133.776 43.5088 134.685 43.3484C135.616 43.1511 136.576 43.1511 137.507 43.3484C138.356 43.5348 139.131 43.9772 139.735 44.6194C140.412 45.3956 140.847 46.3635 140.985 47.3976C141.168 48.2232 141.185 49.0788 141.034 49.9114C140.9 50.5348 140.663 51.13 140.335 51.6717C140.026 52.1778 139.715 52.6783 139.402 53.1732C139.157 53.5605 138.938 53.9645 138.747 54.3823C138.534 54.8321 138.394 55.3146 138.332 55.8108C138.269 56.421 138.298 57.0376 138.419 57.6385L138.523 58.2009L134.805 58.9207ZM137.72 64.3365C137.157 64.4719 136.565 64.3919 136.055 64.1115C135.824 63.9786 135.626 63.7929 135.475 63.5687C135.325 63.3445 135.226 63.0877 135.187 62.818C135.133 62.5488 135.138 62.2707 135.2 62.0034C135.262 61.7361 135.381 61.4862 135.547 61.2715C135.908 60.8021 136.426 60.489 137 60.3942C137.56 60.2621 138.149 60.3632 138.637 60.6754C138.863 60.8168 139.056 61.0065 139.204 61.2316C139.352 61.4568 139.451 61.712 139.494 61.9801C139.554 62.2432 139.556 62.5167 139.499 62.7805C139.442 63.0443 139.329 63.2916 139.167 63.5042C138.805 63.9607 138.287 64.2583 137.72 64.3365Z" fill="#41938F"/>
<path d="M164.963 58.8083L165.22 57.7511C165.342 57.1812 165.562 56.6383 165.869 56.1483C166.113 55.7698 166.415 55.4354 166.765 55.1585C167.077 54.9165 167.403 54.6949 167.742 54.4949C168.145 54.2695 168.535 54.0198 168.91 53.7469C169.283 53.4574 169.539 53.0372 169.631 52.5659C169.704 52.3046 169.691 52.0255 169.593 51.7729C169.506 51.5437 169.37 51.3379 169.194 51.1712C169.041 51.0194 168.853 50.9092 168.648 50.8506C168.322 50.7423 167.97 50.7423 167.644 50.8506C167.346 50.9639 167.078 51.1446 166.857 51.3793C166.628 51.6178 166.418 51.8755 166.23 52.1497L164.264 50.4963C164.45 50.2079 164.66 49.9369 164.892 49.6865C165.212 49.3305 165.58 49.0237 165.984 48.7755C166.469 48.4911 167 48.3005 167.551 48.2131C168.224 48.0989 168.914 48.1392 169.571 48.3312C170.254 48.4932 170.897 48.7996 171.46 49.231C171.966 49.627 172.346 50.1693 172.551 50.7888C172.767 51.5222 172.767 52.3049 172.551 53.0383C172.423 53.6446 172.178 54.2182 171.831 54.7254C171.553 55.1015 171.217 55.4282 170.837 55.6927L169.745 56.4013C169.464 56.5692 169.194 56.7571 168.937 56.9637C168.659 57.1961 168.421 57.4757 168.233 57.7904C168.002 58.1771 167.836 58.6011 167.742 59.0445L167.638 59.4607L164.963 58.8083ZM165.302 63.3693C164.883 63.28 164.51 63.036 164.253 62.6831C164.14 62.5231 164.064 62.3388 164.03 62.144C163.996 61.9492 164.005 61.749 164.057 61.5584C164.1 61.3611 164.186 61.1764 164.308 61.0178C164.43 60.8592 164.585 60.7307 164.761 60.6417C165.143 60.4373 165.586 60.391 166 60.5124C166.414 60.6008 166.777 60.8533 167.01 61.2153C167.115 61.3793 167.186 61.564 167.218 61.7576C167.25 61.9512 167.242 62.1496 167.196 62.3401C167.156 62.5352 167.075 62.7187 166.958 62.8773C166.841 63.0359 166.691 63.1655 166.519 63.2568C166.142 63.4529 165.708 63.4971 165.302 63.3805V63.3693Z" fill="#41938F"/>
<path d="M244.03 157L244.259 155.543C244.359 154.757 244.594 153.995 244.953 153.294C245.238 152.756 245.607 152.27 246.044 151.854C246.435 151.494 246.847 151.16 247.278 150.853C247.795 150.505 248.295 150.13 248.774 149.728C249.243 149.29 249.541 148.69 249.609 148.041C249.679 147.682 249.633 147.309 249.478 146.978C249.334 146.68 249.127 146.419 248.872 146.214C248.647 146.028 248.38 145.903 248.097 145.848C247.641 145.756 247.169 145.809 246.743 146C246.357 146.192 246.016 146.468 245.744 146.81C245.456 147.16 245.201 147.536 244.98 147.934L242.146 145.938C242.368 145.527 242.622 145.136 242.905 144.768C243.299 144.253 243.762 143.798 244.281 143.419C244.897 142.965 245.59 142.631 246.323 142.434C247.216 142.205 248.148 142.178 249.052 142.356C249.992 142.493 250.893 142.83 251.7 143.345C252.437 143.814 253.021 144.5 253.376 145.314C253.756 146.278 253.847 147.338 253.638 148.356C253.536 149.195 253.27 150.004 252.857 150.735C252.526 151.276 252.109 151.755 251.624 152.152C251.165 152.527 250.707 152.887 250.248 153.232C249.887 153.504 249.544 153.801 249.222 154.121C248.874 154.466 248.584 154.869 248.365 155.313C248.099 155.861 247.924 156.45 247.846 157.056L247.753 157.619L244.03 157ZM244.969 163.102C244.394 163.031 243.865 162.747 243.479 162.303C243.306 162.099 243.18 161.856 243.112 161.594C243.044 161.332 243.035 161.057 243.085 160.79C243.125 160.519 243.222 160.259 243.369 160.03C243.516 159.801 243.71 159.607 243.937 159.463C244.425 159.15 245.01 159.038 245.575 159.148C246.145 159.219 246.664 159.518 247.022 159.981C247.187 160.193 247.305 160.44 247.369 160.704C247.434 160.968 247.441 161.243 247.393 161.51C247.362 161.778 247.273 162.035 247.134 162.263C246.994 162.49 246.806 162.683 246.585 162.826C246.099 163.123 245.522 163.221 244.969 163.102Z" fill="#41938F"/>
<path d="M40.9898 128.178L40.9571 126.721C40.9136 125.944 41.0061 125.165 41.2301 124.421C41.4142 123.845 41.689 123.303 42.0435 122.818C42.3587 122.394 42.6996 121.99 43.0643 121.609C43.5058 121.17 43.9214 120.705 44.309 120.215C44.6881 119.704 44.8708 119.067 44.8222 118.426C44.8242 118.064 44.7132 117.712 44.5056 117.42C44.3106 117.162 44.0626 116.953 43.7795 116.807C43.528 116.666 43.2466 116.593 42.9606 116.593C42.5023 116.591 42.0544 116.735 41.6777 117.003C41.3365 117.26 41.0535 117.59 40.8479 117.971C40.6329 118.363 40.4503 118.773 40.302 119.197L37.2012 117.796C37.3496 117.356 37.5322 116.93 37.7471 116.52C38.0369 115.946 38.4045 115.418 38.8389 114.951C39.3579 114.394 39.97 113.939 40.6459 113.607C41.4779 113.228 42.3786 113.036 43.2882 113.044C44.219 113.005 45.1479 113.162 46.0178 113.505C46.814 113.822 47.5003 114.376 47.9885 115.097C48.5282 115.963 48.8056 116.975 48.7856 118.005C48.8376 118.837 48.7223 119.672 48.4471 120.456C48.2221 121.043 47.9028 121.587 47.5027 122.065C47.1205 122.504 46.7438 122.942 46.3617 123.375C46.0575 123.705 45.7766 124.056 45.521 124.427C45.2477 124.83 45.0393 125.277 44.9041 125.749C44.747 126.332 44.6806 126.938 44.7076 127.542V128.105L40.9898 128.178ZM43.0097 133.92C42.4399 133.963 41.8746 133.789 41.4211 133.431C41.2192 133.262 41.0571 133.049 40.9474 132.806C40.8377 132.563 40.7831 132.298 40.7879 132.03C40.7763 131.759 40.8232 131.489 40.9251 131.239C41.0271 130.99 41.1816 130.766 41.3774 130.585C41.7981 130.185 42.35 129.964 42.9224 129.966C43.485 129.932 44.0386 130.124 44.4673 130.501C44.6645 130.676 44.8234 130.893 44.9335 131.136C45.0436 131.379 45.1024 131.644 45.1061 131.912C45.1238 132.178 45.084 132.444 44.9896 132.692C44.8952 132.94 44.7485 133.164 44.5602 133.346C44.1327 133.733 43.5785 133.938 43.0097 133.92Z" fill="#41938F"/>
</g>
<path d="M104.133 77.2488C109.886 56.1918 97.9796 34.3172 77.539 28.3904C57.0983 22.4636 35.8639 34.7291 30.1106 55.786C24.3573 76.843 36.2638 98.7177 56.7044 104.644C77.1451 110.571 98.3794 98.3058 104.133 77.2488Z" fill="#41938F"/>
<path d="M94.7917 94.6165C111.722 78.3913 113.384 52.6504 98.5033 37.1227C83.6225 21.5949 57.8342 22.1602 40.9036 38.3854C23.973 54.6106 22.3113 80.3514 37.1921 95.8792C52.0729 111.407 77.8611 110.842 94.7917 94.6165Z" stroke="#41938F" stroke-width="1.04711" stroke-miterlimit="10"/>
<path d="M63.8125 104.249L79.6169 118.319L72.3834 98.8948L63.8125 104.249Z" fill="#41938F"/>
<path d="M66.7132 80.0327L65.7688 76.3716C65.2104 74.4284 64.9887 72.3991 65.1137 70.3766C65.2366 68.8056 65.6053 67.2654 66.2055 65.8157C66.7577 64.5447 67.3868 63.3107 68.0889 62.1209C68.9484 60.7348 69.7285 59.2983 70.4254 57.8186C71.0799 56.2925 71.1711 54.5727 70.682 52.9822C70.4742 52.0623 69.9841 51.236 69.2845 50.6258C68.6438 50.0931 67.8989 49.7094 67.1008 49.501C66.3844 49.313 65.6336 49.313 64.9171 49.501C63.7557 49.7733 62.7048 50.4099 61.9091 51.3231C61.196 52.1866 60.6744 53.2 60.3805 54.2925C60.0694 55.4173 59.8485 56.5666 59.72 57.7286L57.8966 58.2292L51.0508 56.0696C51.1541 54.869 51.3495 53.6787 51.6349 52.5098C52.0366 50.8776 52.6596 49.3119 53.4856 47.8589C54.4727 46.1345 55.7566 44.61 57.2743 43.3598C59.1413 41.854 61.3011 40.7799 63.6069 40.2105C65.9484 39.5278 68.4008 39.346 70.8131 39.6762C73.0168 39.9852 75.081 40.9642 76.7417 42.4881C78.4341 44.0215 79.6715 46.3067 80.454 49.3435C81.0714 51.421 81.2684 53.6069 81.0327 55.7659C80.8094 57.3901 80.3182 58.9631 79.5805 60.4168C78.8745 61.7703 78.1684 63.1106 77.4623 64.4379C76.8846 65.462 76.3793 66.5277 75.9502 67.6266C75.488 68.8158 75.2205 70.0758 75.1586 71.3552C75.1005 72.9273 75.2848 74.499 75.7045 76.0117L76.0812 77.457L66.7132 80.0327ZM75.1804 93.3161C73.763 93.7698 72.2336 93.6759 70.8786 93.0518C70.2636 92.7575 69.722 92.3223 69.2953 91.7793C68.8686 91.2364 68.568 90.6002 68.4165 89.9194C68.2307 89.2412 68.1926 88.5291 68.3049 87.834C68.4172 87.1389 68.6771 86.478 69.0661 85.8983C69.8925 84.6231 71.1594 83.7202 72.6091 83.3732C74.0151 82.9295 75.5339 83.0708 76.84 83.7669C77.4435 84.0854 77.9733 84.534 78.3935 85.0823C78.8136 85.6306 79.1142 86.2657 79.2748 86.9444C79.4712 87.6014 79.5241 88.2951 79.4297 88.9757C79.3353 89.6562 79.096 90.3069 78.7289 90.881C77.8889 92.1272 76.6203 92.9977 75.1804 93.3161Z" fill="#2C54AC"/>
<path d="M64.8984 80.5332L63.9485 76.8777C63.3886 74.9349 63.1686 72.9049 63.2988 70.8827C63.4201 69.3115 63.7888 67.771 64.3907 66.3218C64.9389 65.0499 65.5662 63.8157 66.2686 62.627C67.1415 61.2413 67.9327 59.8027 68.6379 58.3191C69.2954 56.7937 69.3867 55.0728 68.8945 53.4827C68.6889 52.5619 68.1984 51.7349 67.497 51.1263C66.8563 50.5936 66.1114 50.2099 65.3133 50.0015C64.597 49.8125 63.8459 49.8125 63.1296 50.0015C61.9666 50.2738 60.9139 50.9103 60.1161 51.8236C59.4051 52.6885 58.8837 53.7014 58.5875 54.793C58.2783 55.918 58.0592 57.0672 57.9324 58.2291L49.2305 56.5758C49.3334 55.3747 49.5306 54.1842 49.8201 53.0159C50.2217 51.3837 50.8448 49.818 51.6707 48.365C52.6558 46.6409 53.9379 45.1162 55.454 43.8659C57.3221 42.3632 59.4817 41.2911 61.7866 40.7222C64.1335 40.038 66.5915 39.8562 69.0092 40.188C71.2125 40.4983 73.2764 41.4771 74.9379 42.9999C76.6229 44.5333 77.8585 46.8184 78.6447 49.8553C79.2635 51.9324 79.4623 54.1183 79.2288 56.2777C79.0004 57.9007 78.5096 59.4728 77.7766 60.9286C77.0742 62.282 76.3663 63.6224 75.653 64.9496C75.0793 65.9751 74.5758 67.0406 74.1463 68.1383C73.6823 69.3272 73.413 70.5872 73.3492 71.8669C73.2885 73.4391 73.4728 75.0113 73.8951 76.5234L74.2718 77.9687L64.8984 80.5332ZM73.3547 93.8166C71.9354 94.2702 70.4044 94.1762 69.0474 93.5523C68.4325 93.2587 67.8912 92.8236 67.4653 92.2805C67.0394 91.7374 66.7402 91.1009 66.5907 90.4199C66.4042 89.7421 66.3652 89.0303 66.4766 88.3352C66.5879 87.6401 66.8469 86.9789 67.2349 86.3988C68.0634 85.1233 69.3321 84.2205 70.7834 83.8737C72.1894 83.43 73.7082 83.5713 75.0143 84.2674C75.6171 84.5868 76.1465 85.0357 76.5665 85.5839C76.9865 86.132 77.2875 86.7666 77.4491 87.4449C77.6455 88.1019 77.6984 88.7956 77.604 89.4762C77.5096 90.1568 77.2703 90.8074 76.9032 91.3815C76.0612 92.6256 74.7935 93.4956 73.3547 93.8166Z" fill="white"/>
<path d="M232.135 99.7954C253.398 93.6674 265.812 70.9432 259.864 49.0394C253.915 27.1356 231.856 14.3468 210.593 20.4748C189.331 26.6028 176.916 49.3271 182.865 71.2309C188.813 93.1346 210.872 105.923 232.135 99.7954Z" fill="#164D4A"/>
<path d="M221.51 101.319C245.612 101.319 265.151 82.8804 265.151 60.1356C265.151 37.3907 245.612 18.9524 221.51 18.9524C197.408 18.9524 177.869 37.3907 177.869 60.1356C177.869 82.8804 197.408 101.319 221.51 101.319Z" stroke="#2C54AC" stroke-width="0.92" stroke-miterlimit="10"/>
<path d="M236.879 95.3294L226.878 115.187L226.6 93.5579L236.879 95.3294Z" fill="#164D4A"/>
<path d="M218.107 72.3787L218.287 68.5939C218.332 66.5676 218.722 64.5651 219.439 62.6776C220.028 61.2214 220.845 59.8745 221.857 58.6904C222.755 57.6506 223.718 56.6719 224.74 55.7603C225.966 54.7052 227.132 53.5786 228.233 52.3861C229.312 51.1377 229.909 49.5247 229.909 47.8533C229.989 46.9135 229.767 45.9728 229.276 45.1763C228.821 44.4582 228.214 43.8547 227.502 43.4105C226.88 42.9913 226.164 42.7452 225.422 42.6962C224.243 42.5972 223.064 42.8741 222.043 43.4892C221.107 44.0863 220.31 44.8867 219.706 45.8343C219.08 46.8081 218.532 47.8332 218.068 48.8993L216.185 48.8037L210.289 44.6421C210.737 43.5352 211.27 42.467 211.883 41.4477C212.749 40.02 213.806 38.725 215.022 37.6011C216.47 36.261 218.145 35.2068 219.963 34.4911C222.186 33.6457 224.56 33.3024 226.923 33.4844C229.359 33.57 231.751 34.1671 233.955 35.239C235.96 36.2226 237.637 37.7959 238.775 39.7606C239.929 41.7514 240.431 44.3178 240.282 47.4596C240.251 49.6316 239.793 51.7745 238.934 53.7583C238.24 55.2434 237.306 56.5957 236.171 57.7568C235.101 58.8253 234.033 59.8807 232.967 60.923C232.119 61.7205 231.324 62.5753 230.586 63.4818C229.793 64.4708 229.164 65.5881 228.725 66.7886C228.208 68.2681 227.922 69.8228 227.879 71.3945L227.808 72.8961L218.107 72.3787ZM222.234 87.6811C220.749 87.6707 219.318 87.1029 218.21 86.0839C217.712 85.6101 217.326 85.0253 217.081 84.3742C216.836 83.7232 216.739 83.023 216.796 82.3272C216.819 81.6228 216.993 80.9323 217.306 80.3051C217.618 79.678 218.061 79.1299 218.603 78.6999C219.767 77.7434 221.241 77.2807 222.725 77.4064C224.194 77.4194 225.599 78.0251 226.639 79.0935C227.126 79.5856 227.503 80.1799 227.746 80.836C227.99 81.4921 228.092 82.1945 228.048 82.8952C228.039 83.5867 227.882 84.2676 227.588 84.8889C227.293 85.5103 226.869 86.0567 226.345 86.4889C225.17 87.4076 223.701 87.8318 222.234 87.6755V87.6811Z" fill="#41938F"/>
<path d="M216.21 72.2718L216.395 68.4925C216.438 66.4659 216.828 64.463 217.547 62.5763C218.136 61.1194 218.951 59.7708 219.96 58.5834C220.861 57.5464 221.824 56.5679 222.843 55.6534C224.072 54.5998 225.24 53.4731 226.342 52.2791C227.413 51.0394 228.009 49.4398 228.018 47.78C228.093 46.8399 227.869 45.9001 227.379 45.1031C226.93 44.3863 226.331 43.7812 225.627 43.3316C225.002 42.9143 224.284 42.6685 223.541 42.6174C222.354 42.5093 221.164 42.7845 220.135 43.4047C219.202 44.007 218.405 44.8086 217.798 45.7555C217.174 46.7305 216.626 47.7554 216.161 48.8205L208.387 44.5407C208.848 43.4283 209.395 42.3563 210.024 41.3352C210.877 39.9155 211.921 38.6279 213.125 37.511C214.574 36.172 216.248 35.1179 218.066 34.401C220.289 33.5556 222.663 33.2123 225.026 33.3943C227.463 33.48 229.858 34.077 232.063 35.149C234.069 36.1371 235.745 37.7167 236.878 39.6874C238.036 41.6782 238.538 44.2445 238.385 47.3864C238.359 49.5583 237.902 51.7018 237.042 53.6851C236.344 55.1587 235.41 56.5009 234.28 57.6555C233.188 58.724 232.14 59.7756 231.07 60.8217C230.221 61.6178 229.425 62.4727 228.689 63.3805C227.898 64.3708 227.269 65.4878 226.828 66.6873C226.311 68.1668 226.025 69.7214 225.982 71.2932L225.911 72.7891L216.21 72.2718ZM220.337 87.5629C218.854 87.5501 217.426 86.9825 216.319 85.9657C215.82 85.4922 215.433 84.9076 215.187 84.2565C214.941 83.6055 214.843 82.9052 214.9 82.209C214.922 81.5045 215.096 80.8138 215.408 80.1867C215.721 79.5595 216.164 79.0114 216.707 78.5817C217.872 77.6248 219.348 77.1622 220.834 77.2882C222.301 77.2997 223.705 77.9057 224.742 78.9753C225.223 79.4692 225.595 80.0637 225.834 80.7187C226.072 81.3736 226.171 82.0737 226.124 82.7714C226.117 83.4632 225.961 84.1448 225.666 84.7664C225.371 85.3881 224.946 85.9342 224.42 86.365C223.254 87.2793 221.796 87.7071 220.337 87.5629Z" fill="white"/>
<path d="M150.112 136.568C167.192 133.998 179.016 117.651 176.521 100.056C174.026 82.4615 158.158 70.2814 141.078 72.8513C123.998 75.4213 112.175 91.7681 114.669 109.363C117.164 126.958 133.032 139.138 150.112 136.568Z" fill="#164D4A"/>
<path d="M155.087 135.67C173.05 129.952 183.482 111.545 178.387 94.5555C173.291 77.5664 154.598 68.4292 136.634 74.147C118.67 79.8648 108.238 98.2724 113.334 115.261C118.429 132.251 137.123 141.388 155.087 135.67Z" stroke="#164D4A" stroke-width="1.17" stroke-miterlimit="10"/>
<path d="M146.516 135.382L155.387 146.742L154.3 132.908L146.516 135.382Z" fill="#164D4A"/>
<path d="M144.033 115.519L143.662 112.471C143.418 110.846 143.457 109.189 143.777 107.578C144.046 106.327 144.513 105.13 145.158 104.035C145.734 103.075 146.37 102.154 147.063 101.279C147.901 100.261 148.679 99.1924 149.394 98.0794C150.088 96.9288 150.344 95.555 150.115 94.2214C150.047 93.4579 149.74 92.7376 149.241 92.1687C148.785 91.6632 148.225 91.2677 147.604 91.0102C147.048 90.7664 146.441 90.6735 145.84 90.7403C144.877 90.8284 143.963 91.2213 143.225 91.8651C142.56 92.4789 142.032 93.2351 141.68 94.0808C141.312 94.9482 141.015 95.8454 140.79 96.7634L139.267 96.9602L133.988 94.4914C134.195 93.531 134.48 92.5904 134.84 91.6795C135.334 90.414 135.999 89.2268 136.816 88.1533C137.791 86.8708 138.986 85.7841 140.343 84.9478C142.003 83.9506 143.852 83.333 145.764 83.1369C147.723 82.8511 149.718 82.9812 151.627 83.5193C153.366 84.0166 154.922 85.0344 156.098 86.4437C157.295 87.8647 158.047 89.8424 158.353 92.3768C158.629 94.1169 158.556 95.8968 158.14 97.607C157.786 98.8879 157.223 100.097 156.475 101.184C155.747 102.192 155.037 103.19 154.346 104.176C153.775 104.934 153.257 105.733 152.795 106.566C152.296 107.471 151.945 108.455 151.758 109.479C151.547 110.735 151.531 112.019 151.709 113.281L151.856 114.49L144.033 115.519ZM149.432 127.154C148.245 127.359 147.027 127.111 146.004 126.457C145.541 126.148 145.152 125.734 144.868 125.247C144.584 124.76 144.413 124.212 144.366 123.645C144.289 123.079 144.335 122.502 144.499 121.956C144.663 121.409 144.942 120.907 145.316 120.485C146.116 119.552 147.231 118.969 148.433 118.854C149.611 118.656 150.817 118.938 151.796 119.641C152.247 119.963 152.627 120.38 152.909 120.865C153.192 121.35 153.37 121.891 153.434 122.453C153.521 123.007 153.489 123.574 153.339 124.114C153.189 124.653 152.925 125.152 152.566 125.574C151.754 126.491 150.634 127.056 149.432 127.154Z" fill="#41938F"/>
<path d="M142.519 115.716L142.142 112.668C141.901 111.042 141.94 109.386 142.257 107.775C142.526 106.524 142.993 105.327 143.638 104.232C144.216 103.273 144.852 102.352 145.543 101.476C146.381 100.456 147.161 99.3879 147.88 98.2762C148.568 97.1235 148.824 95.7518 148.6 94.4183C148.53 93.6553 148.224 92.9357 147.727 92.3656C147.27 91.8606 146.711 91.4652 146.089 91.2071C145.533 90.9628 144.926 90.8698 144.326 90.9371C143.362 91.0253 142.449 91.4182 141.711 92.0619C141.039 92.6858 140.508 93.4536 140.155 94.3114C139.789 95.1797 139.492 96.0768 139.265 96.994L132.463 94.7445C132.675 93.7856 132.959 92.8453 133.315 91.9326C133.807 90.6652 134.475 89.4776 135.296 88.4064C136.267 87.1227 137.461 86.0358 138.817 85.2009C140.479 84.2036 142.33 83.586 144.244 83.39C146.201 83.1043 148.195 83.2344 150.102 83.7724C151.84 84.2696 153.396 85.2874 154.573 86.6968C155.77 88.1215 156.522 90.0992 156.827 92.6299C157.103 94.37 157.031 96.1498 156.614 97.8601C156.267 99.1383 155.713 100.347 154.977 101.437C154.267 102.443 153.552 103.439 152.842 104.429C152.274 105.188 151.756 105.987 151.292 106.819C150.797 107.726 150.446 108.71 150.254 109.732C150.043 110.989 150.028 112.272 150.211 113.534L150.358 114.743L142.519 115.716ZM147.907 127.351C146.718 127.556 145.498 127.308 144.473 126.654C144.009 126.346 143.619 125.933 143.335 125.445C143.051 124.957 142.88 124.409 142.835 123.842C142.756 123.276 142.8 122.699 142.963 122.153C143.127 121.606 143.405 121.104 143.78 120.681C144.581 119.748 145.698 119.164 146.902 119.051C148.078 118.853 149.283 119.135 150.26 119.838C150.711 120.16 151.09 120.577 151.373 121.062C151.655 121.547 151.834 122.088 151.898 122.65C151.985 123.204 151.952 123.771 151.802 124.31C151.652 124.85 151.388 125.349 151.03 125.771C150.221 126.687 149.105 127.251 147.907 127.351Z" fill="white"/>
<path d="M64.6488 279.267L41.9603 264.454L48.6206 250.44L32.434 244.169L21.0625 270.399C21.0625 270.399 37.1399 277.951 48.2821 282.293C59.4243 286.635 67.4385 286.876 67.4385 286.876L64.6488 279.267Z" fill="#FFBDBD"/>
<path d="M134.246 265.467L137.866 290.583H64.5215L70.0462 270.185L134.246 265.467Z" fill="#164D4A"/>
<path d="M76.44 160.487V187.56L70.0527 190.81C70.0527 190.81 81.5935 211.793 91.5674 205.101C101.541 198.408 101.394 186.885 101.394 186.885L93.6583 186.559L93.0414 177.15L80.5672 158.423L76.44 160.487Z" fill="#FFBDBD"/>
<path d="M76.9472 136.349C75.6534 140.387 75.4132 144.785 75.5333 149.082C75.7789 157.613 78.5304 166.201 82.2372 173.596C83.1478 175.533 84.3326 177.32 85.7529 178.899C89.7872 183.162 97.2499 184.135 101.994 180.974C103.7 179.771 105.208 178.294 106.46 176.599C110.057 171.965 111.013 165.711 112.028 159.165C113.043 152.619 114.124 145.719 113.191 139.583C112.645 136.102 111.04 134.617 109.238 131.755C107.964 129.799 106.3 128.145 104.357 126.902C102.414 125.659 100.237 124.855 97.9705 124.545C93.4667 123.893 88.941 125.136 84.6556 126.637C80.9324 127.942 78.2356 132.34 76.9472 136.349Z" fill="#FFBDBD"/>
<path d="M79.5474 136.361C81.6574 144.391 80.904 152.935 77.4238 160.442C74.1562 158.829 71.4441 156.227 69.6499 152.985C68.0363 149.725 67.0307 146.183 66.6855 142.541C66.3798 139.926 66.3307 137.176 67.3788 134.775C68.427 132.373 70.8236 130.439 73.384 130.72C73.7115 127.604 75.928 124.635 78.3955 122.807C80.8631 120.98 83.8547 119.995 86.8628 119.529C91.2307 118.849 95.6867 119.085 99.9641 120.221C104.242 121.358 108.252 123.372 111.757 126.142C113.542 127.571 115.223 129.258 116.124 131.4C117.025 133.543 116.927 136.226 115.453 137.992C113.706 140.084 110.692 140.309 108.012 140.37C97.8467 140.618 88.697 140.832 79.5474 136.361Z" fill="#164D4A"/>
<path d="M68.9913 155.937C69.16 157.105 69.5649 158.224 70.1799 159.221C70.795 160.218 71.6064 161.071 72.5616 161.724C73.1479 162.153 73.8292 162.424 74.5433 162.511C76.1811 162.629 77.6114 161.268 78.1027 159.699C78.594 158.13 78.3102 156.381 77.8243 154.795C77.191 152.748 75.9791 150.595 73.9482 150.105C70.6727 149.307 68.5873 153.046 68.9913 155.937Z" fill="#FFBDBD"/>
<g style="mix-blend-mode:multiply">
<path d="M76.4406 160.487C75.7323 160.264 75.0988 159.841 74.6118 159.266C74.5082 159.157 74.4347 159.021 74.3989 158.873C74.401 158.727 74.4356 158.584 74.4999 158.454C74.5643 158.325 74.6568 158.212 74.7701 158.125L75.9875 156.882C76.0732 156.803 76.1403 156.705 76.1841 156.595C76.2039 156.468 76.1908 156.338 76.1458 156.218C75.6873 154.638 75.1414 152.934 73.8202 152.006C73.4718 151.738 73.0536 151.583 72.6192 151.562C72.3006 151.576 71.9889 151.662 71.7059 151.813C71.423 151.965 71.1757 152.179 70.9814 152.439C70.5944 152.967 70.2922 153.556 70.0861 154.182C70.0861 154.182 69.7477 157.557 72.0242 159.598C74.3006 161.64 76.4406 160.487 76.4406 160.487Z" fill="#FFBDBD"/>
</g>
<path d="M70.0684 154.182C70.2249 153.504 70.5026 152.861 70.8872 152.287C71.0995 151.981 71.3808 151.732 71.707 151.563C72.0332 151.393 72.3945 151.308 72.7597 151.314C73.4883 151.407 74.1595 151.768 74.6486 152.332C75.1246 152.86 75.5054 153.472 75.7732 154.137C76.0328 154.778 76.2498 155.435 76.4229 156.106C76.455 156.208 76.477 156.314 76.4884 156.421C76.4985 156.568 76.4642 156.716 76.3901 156.842C76.2773 157 76.1473 157.143 76.0025 157.27L75.2764 157.967C75.0401 158.167 74.8259 158.394 74.6377 158.642C74.6108 158.689 74.5966 158.742 74.5966 158.797C74.5966 158.851 74.6108 158.905 74.6377 158.951C74.7094 159.086 74.7974 159.211 74.8998 159.323C75.3237 159.832 75.8588 160.231 76.4611 160.487C75.7839 160.349 75.1557 160.024 74.6432 159.548C74.5038 159.424 74.3808 159.282 74.2774 159.126C74.2265 159.022 74.2 158.907 74.2 158.791C74.2 158.675 74.2265 158.56 74.2774 158.457C74.3561 158.277 74.4672 158.115 74.605 157.978L74.9434 157.602L75.6258 156.859C75.7266 156.76 75.8197 156.653 75.9042 156.539C75.9042 156.539 75.9042 156.46 75.866 156.286C75.6798 155.646 75.4611 155.018 75.2109 154.402C74.9755 153.801 74.6433 153.246 74.2283 152.76C73.8467 152.282 73.3196 151.951 72.7325 151.82C72.4343 151.8 72.1356 151.85 71.8593 151.967C71.583 152.084 71.3363 152.265 71.1384 152.495C70.696 152.995 70.3347 153.564 70.0684 154.182Z" fill="#164D4A"/>
<path d="M73.2454 189.179C73.2454 189.179 50.0656 200.242 46.2933 203.976C42.5209 207.71 22.7695 240.581 22.7695 240.581C22.7695 240.581 28.9712 247.892 36.2101 250.828C43.449 253.763 51.3485 253.921 51.3485 253.921L59.8922 235.216L70.0572 270.185C70.0572 270.185 86.4348 282.557 107.573 279.616C128.711 276.675 134.258 265.467 134.258 265.467L130.136 235.469C130.136 235.469 138.03 233.456 143.238 229.227C148.446 224.998 154.609 217.023 154.609 217.023C154.609 217.023 129.497 192.464 126.822 189.376C124.147 186.289 98.8709 186.829 98.8709 186.829C98.8709 186.829 99.8208 196.53 92.2434 198.161C84.666 199.792 73.2454 189.179 73.2454 189.179Z" fill="#41938F"/>
<path d="M93.4134 182.633C90.6124 181.986 88.0108 180.634 85.8415 178.697C83.8762 177.01 82.3039 174.861 80.748 172.752C81.2234 173.974 81.7911 175.155 82.4459 176.284C83.6629 178.366 85.1922 180.235 86.977 181.824C88.8328 183.453 91.1092 184.491 93.528 184.81" fill="#164D4A"/>
<path d="M95.0561 152.653C95.0561 153.778 94.4392 154.722 93.6804 154.722C92.9216 154.722 92.3047 153.794 92.3047 152.653C92.3047 151.511 92.9216 150.583 93.6804 150.583C94.4392 150.583 95.0561 151.511 95.0561 152.653Z" fill="#164D4A"/>
<path d="M108.929 152.653C108.929 153.778 108.312 154.722 107.553 154.722C106.795 154.722 106.178 153.794 106.178 152.653C106.178 151.511 106.795 150.583 107.553 150.583C108.312 150.583 108.929 151.511 108.929 152.653Z" fill="#164D4A"/>
<path d="M102.112 149.987C102.695 151.067 103.188 152.196 103.586 153.362C103.988 154.539 104.309 155.743 104.547 156.966C104.789 158.191 104.95 159.431 105.027 160.678C105.101 161.929 105.074 163.183 104.945 164.429L104.918 164.71H104.662C103.646 164.71 102.636 164.654 101.621 164.604C100.605 164.553 99.5955 164.497 98.5801 164.407C99.5955 164.322 100.611 164.261 101.621 164.21C102.631 164.159 103.646 164.131 104.662 164.103L104.367 164.379C104.501 161.933 104.36 159.48 103.946 157.068C103.75 155.857 103.499 154.659 103.193 153.474C102.882 152.327 102.533 151.146 102.112 149.987Z" fill="#164D4A"/>
<path d="M101.422 173.5C102.836 173.5 103.982 172.997 103.982 172.375C103.982 171.754 102.836 171.251 101.422 171.251C100.008 171.251 98.8613 171.754 98.8613 172.375C98.8613 172.997 100.008 173.5 101.422 173.5Z" fill="#164D4A"/>
<path d="M87.5566 149.183C87.9749 148.117 88.5926 147.146 89.3746 146.326C90.1756 145.487 91.1098 144.795 92.1369 144.279C92.6555 144.02 93.1796 143.756 93.7201 143.542C94.2625 143.331 94.8378 143.222 95.4179 143.222C96.5965 143.194 97.7551 143.539 98.7371 144.212V144.437C97.7524 144.867 96.7331 145.207 95.6908 145.454C95.2189 145.575 94.739 145.659 94.2551 145.707C93.7641 145.739 93.2775 145.822 92.8029 145.955C92.3261 146.091 91.8605 146.266 91.4108 146.478C90.9517 146.683 90.5082 146.924 90.0842 147.198C89.2023 147.756 88.4195 148.466 87.7695 149.295L87.5566 149.183Z" fill="#164D4A"/>
<path d="M111.943 149.284C111.376 148.496 110.693 147.806 109.918 147.237C109.178 146.69 108.365 146.256 107.505 145.949C107.081 145.808 106.643 145.714 106.2 145.668C105.763 145.614 105.33 145.526 104.906 145.404C104.475 145.28 104.038 145.151 103.579 144.993C103.086 144.838 102.603 144.651 102.133 144.431V144.217C102.574 143.881 103.075 143.637 103.607 143.497C104.126 143.349 104.663 143.281 105.201 143.295C105.742 143.306 106.276 143.424 106.773 143.643C107.267 143.866 107.748 144.118 108.214 144.397C109.138 144.93 109.96 145.629 110.644 146.461C111.305 147.265 111.814 148.191 112.145 149.188L111.943 149.284Z" fill="#164D4A"/>
<path d="M70.0527 190.81C70.0527 190.81 82.2595 203.217 93.5273 200.607C104.795 197.998 102.3 186.761 102.3 186.761" stroke="#164D4A" stroke-miterlimit="10"/>
<path d="M130.388 236.594C130.099 233.686 129.804 230.779 129.449 227.883C129.094 224.986 128.728 222.09 128.27 219.211C127.811 216.331 127.347 213.452 126.823 210.584C126.561 209.15 126.277 207.716 125.999 206.281L125.131 201.99C125.54 203.391 125.895 204.802 126.261 206.225C126.627 207.648 126.921 209.037 127.233 210.494C127.844 213.356 128.324 216.236 128.805 219.126C129.285 222.017 129.602 224.924 129.864 227.838C130.126 230.751 130.317 233.653 130.388 236.594Z" fill="#164D4A"/>
<path d="M151.765 214.205C151.765 214.205 147.502 221.629 142.626 225.183C137.751 228.737 130.07 231.875 130.07 231.875" stroke="#164D4A" stroke-miterlimit="10"/>
<path d="M59.2435 236.262C60.0264 233.905 60.6305 231.489 61.0505 229.035C61.4855 226.596 61.6467 224.112 61.5309 221.634C61.4272 219.159 60.9861 216.711 60.2207 214.363C59.8377 213.184 59.363 212.038 58.8013 210.938C58.2526 209.827 57.6134 208.766 56.8906 207.766C57.7016 208.705 58.4203 209.724 59.0361 210.809C59.6468 211.899 60.1708 213.039 60.6029 214.217C61.4498 216.59 61.9467 219.081 62.0769 221.606C62.1818 224.124 61.9837 226.646 61.4873 229.114C60.9841 231.571 60.2321 233.967 59.2435 236.262Z" fill="#164D4A"/>
<path d="M24.4648 237.781C24.4648 237.781 28.2099 243.067 36.3331 247.144C44.4564 251.221 52.9073 250.518 52.9073 250.518" stroke="#164D4A" stroke-miterlimit="10"/>
<g opacity="0.31">
<path d="M73.8223 128.234C75.5021 129.231 77.3216 129.953 79.216 130.377C81.1024 130.806 83.0271 131.033 84.959 131.052C88.8241 131.142 92.6729 130.602 96.538 130.186C98.4705 130 100.419 129.848 102.374 129.843C103.346 129.843 104.328 129.843 105.3 129.944C106.28 130.006 107.253 130.151 108.21 130.377C110.167 130.748 111.965 131.73 113.363 133.189C114.029 133.945 114.523 134.844 114.81 135.821C115.111 136.786 115.126 137.822 114.854 138.796C115.032 137.82 114.971 136.813 114.676 135.868C114.382 134.922 113.863 134.067 113.167 133.38C111.78 132.009 110.02 131.108 108.122 130.799C104.339 130.079 100.43 130.343 96.5871 130.748C92.7438 131.153 88.8569 131.665 84.9427 131.485C82.9884 131.415 81.0469 131.132 79.1504 130.641C77.2595 130.141 75.46 129.329 73.8223 128.234Z" fill="white"/>
<path d="M77.7598 123.341C78.3911 123.553 79.0347 123.724 79.6869 123.853C80.3384 123.974 80.9966 124.053 81.6576 124.089C82.9772 124.162 84.3004 124.107 85.6101 123.926C88.2343 123.517 90.8363 122.969 93.4058 122.284C96.0099 121.722 98.6903 121.216 101.387 121.412C102.734 121.506 104.062 121.78 105.34 122.228C106.607 122.686 107.778 123.388 108.79 124.297C108.255 123.893 107.689 123.534 107.098 123.223C106.502 122.928 105.885 122.681 105.252 122.487C103.995 122.112 102.696 121.904 101.387 121.868C98.7432 121.841 96.1073 122.174 93.5478 122.858C90.9492 123.42 88.3561 124.129 85.6756 124.376C84.3392 124.506 82.994 124.506 81.6576 124.376C80.3159 124.231 79.0024 123.882 77.7598 123.341Z" fill="white"/>
<path d="M76.9599 135.927C77.1119 136.607 77.1249 137.312 76.9982 137.997C76.8616 138.682 76.6491 139.348 76.3649 139.982C75.2142 142.529 73.3287 144.648 70.9657 146.05C69.8049 146.752 68.5395 147.252 67.2207 147.529C67.841 147.289 68.4479 147.013 69.0386 146.703C69.6285 146.404 70.1976 146.064 70.7419 145.685C71.8317 144.939 72.8306 144.061 73.7172 143.07C74.6013 142.081 75.3641 140.983 75.9882 139.802C76.3037 139.212 76.5545 138.588 76.7361 137.941C76.9318 137.29 77.0077 136.607 76.9599 135.927Z" fill="white"/>
<path d="M72.0278 132.936C71.7698 134.479 71.1072 135.92 70.1116 137.103C69.1359 138.307 67.8629 139.219 66.4266 139.74L66.252 139.802L66.3338 139.645C66.4266 139.47 66.5249 139.302 66.6286 139.133C66.574 139.324 66.5249 139.515 66.4649 139.695L66.3721 139.6C67.6177 138.824 68.7408 137.857 69.7022 136.732C70.6565 135.593 71.4404 134.313 72.0278 132.936Z" fill="white"/>
</g>
<path d="M66.6087 286.826C66.6087 286.826 69.4912 286.196 70.7086 285.257C71.926 284.318 73.0506 282.867 73.2198 281.32C74.7866 281.522 75.9494 282.883 77.3743 283.57C77.4543 283.623 77.5451 283.656 77.6397 283.668C77.7343 283.68 77.8302 283.669 77.9202 283.637C78.1877 283.502 78.1604 283.108 78.0785 282.816C77.6166 281.256 76.7424 279.858 75.5536 278.781C74.3648 277.703 72.9084 276.988 71.3473 276.714C72.8752 276.845 74.3733 277.224 75.7856 277.839C76.7519 278.323 77.6254 279.037 78.679 279.256C78.7811 279.295 78.8935 279.295 78.9957 279.256C79.0397 279.219 79.0752 279.173 79.0998 279.121C79.1243 279.068 79.1372 279.011 79.1376 278.952C79.1215 278.65 79.0377 278.356 78.8928 278.092C78.7479 277.829 78.5458 277.604 78.3023 277.434C75.9559 275.279 73.045 273.884 69.9334 273.424C73.0753 272.834 76.3187 273.391 79.1048 274.999C79.3719 275.184 79.676 275.305 79.9947 275.353C80.1584 275.367 80.3211 275.316 80.4505 275.212C80.5799 275.108 80.6666 274.958 80.6935 274.791C80.692 274.651 80.6564 274.513 80.5897 274.391C79.9539 273.163 78.9692 272.165 77.7673 271.529C74.8118 269.722 71.3314 269.048 67.9408 269.628C70.9759 268.433 74.3145 268.332 77.4125 269.341C78.2389 269.667 79.0897 269.923 79.9565 270.106C80.0055 270.122 80.0572 270.126 80.108 270.119C80.1588 270.112 80.2077 270.095 80.2513 270.067C80.3932 269.943 80.3059 269.712 80.2076 269.555C79.5128 268.524 78.6225 267.649 77.5904 266.982C76.5583 266.315 75.4059 265.87 74.2025 265.675C71.8114 265.253 69.0763 265.225 67.1874 266.799C66.5405 268.303 66.0801 269.884 65.8172 271.506C65.4132 274.105 64.6271 279.273 64.6271 279.273L62.2305 279.397L66.1229 286.786L66.6087 286.826Z" fill="#FFBDBD"/>
<path d="M148.879 223.766C147.124 225.733 145.176 227.507 143.065 229.058C141.056 230.508 138.967 231.836 136.808 233.034L150.331 251.682L139.925 270.016C139.925 270.016 138.173 265.196 137.278 262.773C136.711 261.263 135.963 259.833 135.05 258.515C132.927 257.391 130.301 257.953 128.074 258.875C126.954 259.311 125.932 259.975 125.069 260.829C124.206 261.682 123.519 262.707 123.051 263.841C122.98 264.016 122.942 264.257 123.106 264.342C123.13 264.358 123.158 264.367 123.188 264.37C123.642 264.367 124.08 264.2 124.427 263.897C127.459 261.68 131.217 260.783 134.887 261.4C132.89 261.491 130.934 262.005 129.14 262.911C127.345 263.817 125.752 265.095 124.46 266.664C123.92 267.263 123.615 268.046 123.602 268.863C123.597 268.902 123.597 268.942 123.602 268.981C123.663 269.132 123.776 269.254 123.92 269.324C124.063 269.393 124.226 269.406 124.378 269.358C124.677 269.249 124.948 269.07 125.169 268.835C127.545 266.725 130.56 265.532 133.697 265.461C130.788 266.543 128.254 268.483 126.408 271.04C126.207 271.254 126.056 271.513 125.967 271.797C125.879 272.08 125.854 272.381 125.895 272.676C125.909 272.732 125.935 272.783 125.969 272.828C126.004 272.872 126.048 272.909 126.097 272.935C126.2 272.961 126.309 272.947 126.403 272.895C127.375 272.468 128.084 271.602 128.914 270.933C130.158 270.049 131.528 269.372 132.976 268.925C131.524 269.508 130.258 270.496 129.321 271.778C128.384 273.061 127.812 274.587 127.67 276.185C127.642 276.483 127.67 276.872 127.975 276.945C128.064 276.954 128.154 276.944 128.239 276.915C128.323 276.886 128.401 276.838 128.467 276.776C129.711 275.82 130.563 274.273 132.031 273.762C132.495 275.229 133.855 276.399 135.214 277.051C136.073 277.455 137.001 277.677 137.944 277.704C140.544 277.597 143.021 276.533 144.926 274.706L168.073 248.364L148.879 223.766Z" fill="#FFBDBD"/>
<path d="M148.025 255.715C148.698 254.22 149.468 252.773 150.329 251.385C151.178 249.988 152.144 248.67 153.217 247.448C153.766 246.821 154.377 246.256 155.04 245.761C155.7 245.281 156.394 244.852 157.115 244.479C158.537 243.712 160.063 243.168 161.641 242.865C160.883 243.11 160.141 243.405 159.419 243.747C158.695 244.079 157.992 244.455 157.311 244.872C155.934 245.647 154.685 246.642 153.61 247.819C152.539 249.015 151.555 250.291 150.668 251.638C150.204 252.301 149.761 252.982 149.33 253.668C148.899 254.354 148.462 255.012 148.025 255.715Z" fill="#164D4A"/>
<path d="M45.8629 267.007L44.2252 266.063C43.6793 265.748 43.1333 265.433 42.6202 265.129C42.0897 264.814 41.543 264.528 40.9824 264.274C40.4291 264.028 39.8577 263.827 39.2737 263.673C38.1149 263.352 36.9313 263.136 35.7361 263.026C34.5123 262.907 33.2804 262.907 32.0566 263.026C32.6538 262.853 33.2636 262.731 33.88 262.66C34.5007 262.602 35.1239 262.578 35.7471 262.587C36.9999 262.622 38.2443 262.811 39.4538 263.15C40.0611 263.323 40.6544 263.545 41.2281 263.813C41.8 264.089 42.3479 264.414 42.8658 264.786C43.9082 265.462 44.9091 266.204 45.8629 267.007Z" fill="#164D4A"/>
<path d="M182.933 211.894C182.933 211.894 179.619 204.864 177.37 203.172C175.121 201.479 169.662 199.533 168.635 199.572C167.609 199.612 168.155 201.788 168.603 202.216C169.05 202.643 172.244 204.881 172.244 204.881C172.244 204.881 166.921 202.935 165.693 201.951C164.465 200.967 157.504 193.898 156.718 194.157C155.932 194.415 156.636 197.328 157.706 198.577C158.776 199.825 165.142 205.708 165.142 205.708C165.142 205.708 154.6 196.923 153.868 197.227C153.137 197.531 152.487 203.065 155.441 206.433C158.394 209.802 163.193 212.62 165.049 213.216C166.905 213.812 173.03 214.835 173.03 214.835L175.285 217.276L182.933 211.894Z" fill="#FFBDBD"/>
<path d="M172.202 204.847C172.488 207.102 173.353 209.238 174.708 211.034C173.782 210.334 173.065 209.381 172.639 208.284C172.191 207.201 172.04 206.012 172.202 204.847Z" fill="#164D4A"/>
<path d="M154.018 203.739C154.039 203.596 154.114 203.467 154.226 203.379C154.338 203.291 154.478 203.251 154.618 203.267C154.898 203.308 155.158 203.44 155.361 203.644C155.759 204.004 156.152 204.358 156.562 204.701C157.375 205.393 158.199 206.068 159.029 206.714C159.859 207.361 160.732 207.985 161.6 208.598C162.468 209.211 163.364 209.779 164.259 210.364C163.28 209.942 162.33 209.451 161.415 208.896C159.576 207.795 157.87 206.473 156.332 204.96C155.95 204.583 155.573 204.189 155.208 203.801C155.052 203.6 154.841 203.453 154.602 203.379C154.478 203.353 154.35 203.375 154.241 203.442C154.133 203.509 154.053 203.615 154.018 203.739Z" fill="#164D4A"/>
<path d="M153.318 200.68C153.37 200.381 153.492 200.099 153.673 199.859C153.778 199.731 153.923 199.646 154.083 199.617C154.247 199.591 154.415 199.625 154.558 199.713C154.796 199.883 155.022 200.071 155.235 200.275L155.884 200.838C156.752 201.602 157.631 202.356 158.537 203.087C159.444 203.818 160.344 204.532 161.267 205.247C162.19 205.961 163.096 206.675 163.997 207.429C163.003 206.833 162.037 206.197 161.081 205.533C160.126 204.87 159.203 204.167 158.292 203.453C157.38 202.738 156.507 201.945 155.682 201.119L155.071 200.489C154.882 200.277 154.681 200.076 154.47 199.887C154.372 199.806 154.248 199.765 154.122 199.773C153.996 199.78 153.877 199.835 153.788 199.926C153.58 200.139 153.419 200.396 153.318 200.68Z" fill="#164D4A"/>
<path d="M173.031 214.847L189.769 271.394L199.214 251.503L182.934 211.894L173.031 214.847Z" fill="#FFBDBD"/>
<path d="M221.871 164.676C221.871 164.676 232.14 152.67 231.343 144.729C230.998 141.305 230.094 137.966 228.668 134.853C227.764 132.663 226.381 130.718 224.628 129.168C222.33 127.295 219.376 126.564 216.543 125.793C212.372 124.669 208.092 123.336 203.818 123.954C200.646 124.41 197.649 125.777 194.81 127.301C191.234 129.218 189.837 132.924 188.521 136.861C187.164 140.785 186.441 144.911 186.381 149.076C186.465 150.698 186.327 152.324 185.972 153.907C185.284 156.387 180.709 160.239 180.709 160.239C180.709 160.239 183.826 161.926 185.377 162.269C185.972 164.373 186.468 166.178 186.965 167.955H187.151C188.133 167.955 189.52 168.489 189.52 169.142C189.52 169.665 188.401 170.092 187.675 170.238C188.068 171.431 188.51 172.645 189.062 173.984C189.476 174.991 190.912 177.634 191.791 178.252C192.731 178.81 193.818 179.05 194.897 178.938C198.047 178.853 201.144 178.086 203.987 176.689C204.211 178.078 204.194 179.175 204.315 180.575C204.443 181.653 204.443 182.742 204.315 183.82C203.954 186.21 202.535 188.263 201.159 190.22C204.353 191.643 207.89 191.316 211.324 190.782C215.118 190.186 219.18 189.247 221.697 186.283C222.657 186.283 222.357 186.109 222.647 185.158C222.837 184.187 222.909 183.195 222.859 182.206L221.871 164.676Z" fill="#FFBDBD"/>
<path d="M222.861 182.206C219.616 184.911 215.888 186.937 211.888 188.167C205.719 189.916 202.154 188.791 202.154 188.791C202.154 188.791 193.01 202.997 191.547 223.035C190.084 243.072 187.895 290.582 187.895 290.582H251.254L237.994 221.972L250.277 216.196C250.277 216.196 245.134 203.261 240.117 194.977C236.179 188.587 229.997 184.011 222.861 182.206Z" fill="#164D4A"/>
<path d="M243.76 219.278L226.815 227.084L235.288 253.803L221.361 290.583H232.558L250.126 252.628L243.76 219.278Z" fill="#FFBDBD"/>
<path d="M226.821 227.084L223.239 228.951C222.042 229.573 220.845 230.188 219.647 230.796L219.489 230.874L219.423 230.706C218.228 227.629 217.092 224.519 216.055 221.393C215.018 218.266 214.002 215.105 213.216 211.883C212.801 210.273 212.478 208.639 212.25 206.99C212.042 205.338 211.945 203.673 211.961 202.007C211.971 198.688 212.315 195.378 212.987 192.132C212.489 195.398 212.268 198.702 212.326 202.007C212.364 203.652 212.495 205.293 212.719 206.922C212.953 208.551 213.285 210.162 213.713 211.748C214.537 214.936 215.509 218.091 216.525 221.224C217.032 222.793 217.567 224.356 218.097 225.914C218.626 227.472 219.189 229.035 219.735 230.582L219.516 230.492C220.728 229.914 221.945 229.352 223.168 228.805L226.821 227.084Z" fill="white"/>
<path d="M203.717 176.796C206.032 175.251 208.031 173.255 209.602 170.919C208.438 174.227 206.616 177.248 204.252 179.788L203.717 176.796Z" fill="#164D4A"/>
<path d="M192.135 153.018C192.135 154.031 191.589 154.857 190.95 154.857C190.311 154.857 189.76 154.031 189.76 153.018C189.76 152.006 190.306 151.185 190.95 151.185C191.594 151.185 192.135 152.006 192.135 153.018Z" fill="#164D4A"/>
<path d="M195.921 151.449C195.078 149.901 193.786 148.664 192.225 147.912C191.461 147.638 190.683 147.411 189.894 147.231C189.113 146.978 188.321 146.776 187.377 146.467L187.35 146.304C188.177 145.723 189.176 145.462 190.172 145.567C191.156 145.701 192.088 146.105 192.869 146.737C193.671 147.284 194.367 147.98 194.922 148.789C195.456 149.576 195.846 150.456 196.073 151.387L195.921 151.449Z" fill="#164D4A"/>
<path d="M225.863 170.317C225.973 170.91 226.177 171.481 226.469 172.005C226.687 172.567 226.72 173.32 226.245 173.692C225.912 173.879 225.523 173.933 225.153 173.844C223.096 173.497 221.197 172.491 219.726 170.968C218.256 169.446 217.289 167.484 216.964 165.363C217.002 166.049 217.041 166.735 217.084 167.421C217.131 167.704 217.079 167.995 216.937 168.242C216.825 168.356 216.686 168.44 216.535 168.484C216.383 168.528 216.223 168.532 216.069 168.495C214.922 168.321 214.142 167.236 213.536 166.246C211.219 162.472 208.31 159.121 204.927 156.331C204.927 156.331 201.624 148.879 207.547 140.213C205.078 142.129 202.175 143.364 199.113 143.801C198.753 143.887 198.38 143.887 198.021 143.801C197.838 143.751 197.675 143.642 197.556 143.491C197.438 143.339 197.369 143.152 197.36 142.958C197.395 142.702 197.503 142.463 197.671 142.271C198.481 141.156 199.434 140.158 200.505 139.308C196.64 141.276 191.977 141.872 187.67 142.041C187.086 142.041 186.322 141.923 186.245 141.327C186.24 141.047 186.333 140.776 186.507 140.562C186.995 139.826 187.603 139.183 188.303 138.661C185.606 139.938 182.871 141.062 180.065 140.056C179.435 139.874 178.882 139.478 178.499 138.931C178.319 138.65 178.237 138.313 178.268 137.978C178.299 137.642 178.44 137.328 178.668 137.086C178.912 136.903 179.185 136.766 179.476 136.681C183.221 135.247 185.312 131.266 188.009 128.246C191.598 124.235 196.491 121.722 201.76 121.182C200.888 120.827 200.084 120.314 199.386 119.669C199.211 119.549 199.064 119.39 198.956 119.204C198.847 119.019 198.78 118.811 198.758 118.595C198.758 117.948 199.489 117.594 200.095 117.409C205.103 115.876 210.463 116.109 215.328 118.069C220.193 120.028 224.284 123.604 226.955 128.229C226.889 126.93 226.813 125.855 226.747 124.556C226.709 123.859 226.796 122.97 227.44 122.762C227.663 122.723 227.892 122.743 228.105 122.821C228.319 122.899 228.509 123.031 228.658 123.207C230.137 124.635 230.296 126.958 230.35 129.044C231.549 129.32 232.685 129.829 233.697 130.546C234.764 131.266 235.518 132.385 235.798 133.667C235.831 133.853 235.831 134.083 235.678 134.19C235.565 134.25 235.434 134.262 235.313 134.224C233.998 133.999 232.7 133.685 231.426 133.285C234.625 136.231 235.864 141.158 235.52 145.589C235.176 150.021 233.424 154.155 231.426 158.074C229.428 161.994 225.672 165.897 225.863 170.317Z" fill="#164D4A"/>
<g opacity="0.29">
<path d="M187.754 138.498C188.886 138.288 189.929 137.724 190.74 136.884C191.595 136.104 192.407 135.274 193.169 134.398C194.725 132.666 196.194 130.821 198.006 129.309C199.84 127.794 202.02 126.787 204.337 126.382C206.655 125.978 209.034 126.19 211.25 126.997L210.955 127.419C210.666 127.038 210.422 126.623 210.229 126.182C210.132 125.962 210.048 125.737 209.978 125.507C209.895 125.262 209.845 125.007 209.831 124.748C209.829 124.592 209.863 124.439 209.931 124.3C209.998 124.161 210.097 124.041 210.218 123.949C210.44 123.792 210.698 123.699 210.966 123.679C211.438 123.65 211.912 123.684 212.375 123.78C214.209 124.118 215.809 125.046 217.392 125.912C220.516 127.743 223.526 129.773 226.405 131.991C223.386 129.995 220.4 127.959 217.217 126.266C215.623 125.445 214.018 124.579 212.304 124.27C211.885 124.189 211.458 124.161 211.032 124.185C210.85 124.197 210.675 124.26 210.524 124.365C210.465 124.409 210.417 124.467 210.386 124.535C210.354 124.603 210.34 124.678 210.344 124.753C210.358 124.959 210.4 125.161 210.47 125.355C210.537 125.563 210.616 125.768 210.704 125.968C210.883 126.37 211.109 126.747 211.376 127.093L211.922 127.824L211.065 127.515C208.929 126.758 206.645 126.557 204.415 126.93C202.176 127.298 200.066 128.251 198.285 129.697C196.489 131.125 194.976 132.919 193.371 134.623C192.576 135.482 191.728 136.288 190.833 137.036C189.98 137.842 188.903 138.353 187.754 138.498Z" fill="white"/>
<path d="M224.868 134.376C222.928 133.12 220.685 132.448 218.394 132.435C217.264 132.447 216.14 132.604 215.047 132.902C213.95 133.21 212.878 133.609 211.843 134.094C209.746 135.017 207.721 136.164 205.608 137.114C204.553 137.598 203.494 138.065 202.431 138.515C201.339 138.948 200.286 139.386 199.199 139.769C200.242 139.268 201.29 138.779 202.322 138.262C203.354 137.744 204.402 137.255 205.428 136.726L208.507 135.135C209.533 134.572 210.565 134.061 211.624 133.577C213.748 132.649 216.041 131.89 218.405 132.002C219.572 132.054 220.725 132.281 221.828 132.677C222.92 133.078 223.946 133.651 224.868 134.376Z" fill="white"/>
<path d="M227.143 136.26C228.982 138.856 229.824 142.061 229.507 145.258C229.164 148.49 227.68 151.481 225.336 153.66L225.134 153.187C225.282 153.171 225.431 153.185 225.574 153.229C225.716 153.272 225.849 153.344 225.964 153.44C226.167 153.622 226.331 153.847 226.445 154.098C226.648 154.567 226.733 155.082 226.69 155.594C226.637 156.566 226.412 157.519 226.024 158.406C225.304 160.178 224.206 161.702 223.622 163.428C223.039 165.178 223.004 167.073 223.524 168.844C224.011 170.646 225.025 172.251 226.428 173.439C224.932 172.325 223.819 170.749 223.251 168.94C222.667 167.116 222.648 165.151 223.196 163.316C223.786 161.482 224.889 159.941 225.555 158.254C225.906 157.423 226.109 156.533 226.155 155.628C226.188 155.203 226.119 154.776 225.953 154.385C225.789 154.008 225.506 153.738 225.189 153.778L224.343 153.885L224.982 153.322C227.256 151.222 228.728 148.354 229.131 145.235C229.51 142.096 228.806 138.919 227.143 136.26Z" fill="white"/>
<path d="M217.415 166.651C216.607 164.173 216.112 161.599 215.941 158.991C215.77 156.372 215.954 153.741 216.487 151.174C217.045 148.597 218 146.129 219.314 143.863C219.978 142.743 220.73 141.683 221.564 140.691C222.403 139.713 223.332 138.82 224.337 138.025C223.403 138.898 222.543 139.849 221.766 140.871C220.985 141.881 220.286 142.955 219.675 144.082C218.447 146.327 217.551 148.747 217.016 151.264C216.47 153.797 216.249 156.393 216.361 158.985C216.46 161.571 216.813 164.139 217.415 166.651Z" fill="white"/>
</g>
<path d="M214.262 154.548C214.093 155.716 213.688 156.835 213.073 157.832C212.458 158.829 211.647 159.682 210.691 160.335C210.105 160.764 209.424 161.035 208.71 161.122C207.099 161.24 205.642 159.879 205.15 158.31C204.659 156.741 204.943 154.998 205.434 153.412C206.062 151.359 207.274 149.211 209.305 148.722C212.58 147.912 214.666 151.674 214.262 154.548Z" fill="#FFBDBD"/>
<g style="mix-blend-mode:multiply">
<path d="M206.809 159.098C207.515 158.871 208.147 158.448 208.637 157.877C208.743 157.769 208.817 157.633 208.85 157.484C208.899 157.197 208.681 156.921 208.479 156.736C208.075 156.319 207.671 155.903 207.262 155.493C207.176 155.415 207.11 155.316 207.071 155.206C207.046 155.078 207.057 154.945 207.103 154.824C207.567 153.249 208.108 151.545 209.429 150.617C209.779 150.351 210.196 150.194 210.63 150.167C210.949 150.181 211.26 150.267 211.543 150.419C211.826 150.57 212.074 150.784 212.268 151.044C212.654 151.575 212.956 152.165 213.163 152.793C213.163 152.793 213.502 156.168 211.225 158.209C208.949 160.25 206.809 159.098 206.809 159.098Z" fill="#FFBDBD"/>
</g>
<path d="M213.177 152.799C212.916 152.182 212.56 151.613 212.123 151.112C211.926 150.88 211.68 150.699 211.403 150.582C211.127 150.465 210.828 150.415 210.529 150.437C209.941 150.565 209.414 150.897 209.034 151.376C208.619 151.86 208.289 152.414 208.056 153.013C207.803 153.63 207.582 154.261 207.396 154.902C207.341 155.077 207.336 155.127 207.358 155.156C207.442 155.27 207.535 155.377 207.636 155.476L208.318 156.218L208.657 156.595C208.795 156.732 208.906 156.894 208.984 157.073C209.031 157.179 209.053 157.295 209.048 157.411C209.043 157.527 209.012 157.641 208.957 157.742C208.854 157.899 208.731 158.041 208.591 158.164C208.088 158.635 207.472 158.96 206.806 159.103C207.408 158.848 207.944 158.449 208.367 157.939C208.47 157.828 208.558 157.703 208.63 157.568C208.656 157.52 208.67 157.466 208.67 157.411C208.67 157.355 208.656 157.301 208.63 157.253C208.443 157.005 208.228 156.781 207.991 156.584L207.265 155.887C207.121 155.759 206.991 155.615 206.877 155.459C206.794 155.339 206.749 155.196 206.746 155.049C206.758 154.944 206.78 154.84 206.812 154.739C206.985 154.069 207.202 153.411 207.461 152.771C207.728 152.105 208.109 151.493 208.586 150.966C209.076 150.402 209.746 150.039 210.475 149.942C210.84 149.939 211.2 150.025 211.526 150.195C211.851 150.364 212.133 150.611 212.347 150.915C212.735 151.485 213.016 152.124 213.177 152.799Z" fill="#164D4A"/>
</svg>
