<svg width="163" height="34" viewBox="0 0 163 34" fill="none" xmlns="http://www.w3.org/2000/svg">
<g clip-path="url(#clip0_131_225)">
<path d="M144.985 10.5485H149.24V3.84814H157.616V10.5485H162.686V16.932H144.985V10.5485ZM149.24 18.743H157.616V33.6378H149.24V18.743Z" fill="white"/>
<path d="M131.323 19.8294H134.492C134.492 18.1393 134.326 17.0527 133.994 16.5698C133.813 16.2982 133.572 16.1322 133.27 16.0718C132.968 15.9812 132.53 15.936 131.957 15.936H131.323V10.1863H131.957C134.552 10.1863 136.544 10.3976 137.933 10.8201C139.351 11.2427 140.393 11.9369 141.057 12.9027C141.66 13.7478 142.023 14.8343 142.143 16.1623C142.294 17.4903 142.37 19.4824 142.37 22.1384V23.9493H131.323V19.8294ZM132.862 33.9999C130.086 33.9999 127.897 33.7735 126.298 33.3208C124.728 32.8379 123.551 32.0833 122.766 31.0571C122.072 30.1517 121.619 29.0349 121.408 27.7069C121.197 26.3487 121.091 24.4926 121.091 22.1384C121.091 19.9653 121.167 18.2449 121.318 16.9772C121.469 15.6794 121.785 14.5778 122.268 13.6723C122.812 12.6763 123.642 11.9067 124.758 11.3634C125.905 10.7899 127.46 10.4278 129.422 10.2768V23.9493C129.422 24.9755 129.467 25.7149 129.557 26.1677C129.648 26.5902 129.859 26.9071 130.191 27.1184C130.553 27.3598 131.112 27.4957 131.866 27.5258C132.832 27.5862 133.858 27.6164 134.945 27.6164C136.876 27.6164 138.28 27.5711 139.155 27.4806L141.464 27.2995V33.1397C140.257 33.5019 138.597 33.7433 136.484 33.8641C135.458 33.9546 134.251 33.9999 132.862 33.9999Z" fill="white"/>
<path d="M106.122 19.8294H109.291C109.291 18.1393 109.125 17.0527 108.793 16.5698C108.612 16.2982 108.371 16.1322 108.069 16.0718C107.767 15.9812 107.33 15.936 106.756 15.936H106.122V10.1863H106.756C109.352 10.1863 111.344 10.3976 112.732 10.8201C114.151 11.2427 115.192 11.9369 115.856 12.9027C116.46 13.7478 116.822 14.8343 116.943 16.1623C117.093 17.4903 117.169 19.4824 117.169 22.1384V23.9493H106.122V19.8294ZM107.662 33.9999C104.885 33.9999 102.697 33.7735 101.097 33.3208C99.5276 32.8379 98.3505 32.0833 97.5657 31.0571C96.8715 30.1517 96.4188 29.0349 96.2075 27.7069C95.9963 26.3487 95.8906 24.4926 95.8906 22.1384C95.8906 19.9653 95.9661 18.2449 96.117 16.9772C96.2679 15.6794 96.5848 14.5778 97.0677 13.6723C97.611 12.6763 98.441 11.9067 99.5577 11.3634C100.705 10.7899 102.259 10.4278 104.221 10.2768V23.9493C104.221 24.9755 104.266 25.7149 104.357 26.1677C104.447 26.5902 104.658 26.9071 104.99 27.1184C105.353 27.3598 105.911 27.4957 106.666 27.5258C107.631 27.5862 108.658 27.6164 109.744 27.6164C111.676 27.6164 113.079 27.5711 113.955 27.4806L116.263 27.2995V33.1397C115.056 33.5019 113.396 33.7433 111.283 33.8641C110.257 33.9546 109.05 33.9999 107.662 33.9999Z" fill="white"/>
<path d="M83.028 0H91.4035V33.6378H83.028V0ZM76.5087 33.9547C75.3015 33.9547 74.2602 33.7585 73.3849 33.3662C72.5398 32.9738 71.8607 32.34 71.3476 31.4647C70.7742 30.5593 70.3516 29.352 70.08 27.8429C69.8385 26.3338 69.7178 24.4474 69.7178 22.1838C69.7178 17.747 70.2611 14.6383 71.3476 12.8575C72.3738 11.107 74.0942 10.2317 76.5087 10.2317C77.5953 10.2317 78.4857 10.3222 79.1798 10.5033C79.874 10.6542 80.5229 10.9711 81.1266 11.4541V17.2037H80.6286C79.9646 17.2037 79.4817 17.249 79.1798 17.3395C78.9082 17.3999 78.6969 17.5659 78.546 17.8376C78.3951 18.1696 78.3046 18.6525 78.2744 19.2863C78.2442 19.739 78.2291 20.6747 78.2291 22.0932C78.2291 23.5118 78.2442 24.4474 78.2744 24.9001C78.3046 25.534 78.3951 26.0169 78.546 26.3489C78.6969 26.6507 78.9384 26.8318 79.2704 26.8921C79.6929 26.9525 80.1457 26.9827 80.6286 26.9827H81.1266V32.7324C80.5229 33.1851 79.8438 33.502 79.0893 33.6831C78.3649 33.8642 77.5047 33.9547 76.5087 33.9547Z" fill="white"/>
<path d="M56.8672 0H65.2427V6.51931H56.8672V0ZM56.8672 10.5486H65.2427V33.6378H56.8672V10.5486Z" fill="white"/>
<path d="M36.8145 33.9547C34.0982 33.9547 32.2721 33.1247 31.3365 31.4647C30.914 30.7404 30.6272 29.8651 30.4763 28.8389C30.3254 27.7825 30.25 26.4998 30.25 24.9907V10.5486H38.6255V21.4594C38.6255 23.059 38.6405 24.1154 38.6707 24.6285C38.7311 25.3831 38.8216 25.9263 38.9424 26.2583C39.0631 26.5903 39.2593 26.8016 39.5309 26.8921C39.8026 26.9525 40.2855 26.9827 40.9796 26.9827H41.4324V32.6418C40.2553 33.5171 38.716 33.9547 36.8145 33.9547ZM43.3338 10.5486H51.7093V33.6378H43.3338V10.5486Z" fill="white"/>
<path d="M11.1371 2.21823C12.3444 2.15787 13.3404 2.12769 14.1252 2.12769C16.8415 2.12769 19.3316 2.30878 21.5952 2.67096C22.7421 2.79169 23.8438 2.97278 24.9001 3.21424V9.68826C23.6325 9.56753 22.6818 9.46191 22.0479 9.37136C21.5348 9.34118 20.7048 9.26573 19.5579 9.145C18.411 9.08463 17.6565 9.05445 17.2943 9.05445C15.4532 9.05445 14.095 9.09972 13.2197 9.19027C12.3746 9.25063 11.6804 9.43173 11.1371 9.73355V2.21823ZM14.1252 33.9999C11.107 33.9999 8.69241 33.7735 6.88149 33.3208C5.10075 32.868 3.71238 32.0682 2.71638 30.9213C1.72037 29.7744 1.0111 28.1898 0.588549 26.1676C0.196183 24.1454 0 21.4442 0 18.0638C0 15.1965 0.135819 12.8423 0.407457 11.0012C0.679094 9.16008 1.14692 7.65099 1.81092 6.47389C2.5051 5.26661 3.44075 4.34606 4.61784 3.71224C5.79494 3.07842 7.33422 2.64078 9.23569 2.39932V18.0638C9.23569 20.2067 9.29605 21.8516 9.41678 22.9985C9.5375 24.1153 9.76387 24.9754 10.0959 25.5791C10.4581 26.2129 10.9711 26.6505 11.6352 26.892C12.3293 27.1335 13.3103 27.2542 14.5779 27.2542V33.9999H14.1252ZM16.4794 21.6856H13.265V15.121H25.0359V32.868C23.6174 33.2 21.8518 33.4566 19.739 33.6377C18.7128 33.7886 17.6263 33.8791 16.4794 33.9093V21.6856Z" fill="white"/>
</g>
<defs>
<clipPath id="clip0_131_225">
<rect width="163" height="34" fill="white"/>
</clipPath>
</defs>
</svg>
