<svg width="163" height="34" viewBox="0 0 163 34" fill="none" xmlns="http://www.w3.org/2000/svg">
<path d="M144.985 10.5485H149.24V3.84814H157.616V10.5485H162.686V16.932H144.985V10.5485ZM149.24 18.743H157.616V33.6378H149.24V18.743Z" fill="#161616"/>
<path d="M131.323 19.8295H134.492C134.492 18.1394 134.326 17.0528 133.994 16.5699C133.813 16.2983 133.572 16.1323 133.27 16.0719C132.968 15.9813 132.53 15.9361 131.957 15.9361H131.323V10.1864H131.957C134.552 10.1864 136.544 10.3977 137.933 10.8202C139.351 11.2428 140.393 11.937 141.057 12.9028C141.66 13.7479 142.023 14.8344 142.143 16.1624C142.294 17.4904 142.37 19.4825 142.37 22.1385V23.9494H131.323V19.8295ZM132.862 34C130.086 34 127.897 33.7736 126.298 33.3209C124.728 32.838 123.551 32.0834 122.766 31.0572C122.072 30.1518 121.619 29.035 121.408 27.707C121.197 26.3488 121.091 24.4927 121.091 22.1385C121.091 19.9654 121.167 18.245 121.318 16.9773C121.469 15.6795 121.785 14.5779 122.268 13.6724C122.812 12.6764 123.642 11.9068 124.758 11.3635C125.905 10.79 127.46 10.4279 129.422 10.2769V23.9494C129.422 24.9756 129.467 25.715 129.557 26.1678C129.648 26.5903 129.859 26.9072 130.191 27.1185C130.553 27.3599 131.112 27.4958 131.866 27.5259C132.832 27.5863 133.858 27.6165 134.945 27.6165C136.876 27.6165 138.28 27.5712 139.155 27.4807L141.464 27.2996V33.1398C140.257 33.502 138.597 33.7434 136.484 33.8642C135.458 33.9547 134.251 34 132.862 34Z" fill="#161616"/>
<path d="M106.122 19.8295H109.291C109.291 18.1394 109.125 17.0528 108.793 16.5699C108.612 16.2983 108.371 16.1323 108.069 16.0719C107.767 15.9813 107.33 15.9361 106.756 15.9361H106.122V10.1864H106.756C109.352 10.1864 111.344 10.3977 112.732 10.8202C114.151 11.2428 115.192 11.937 115.856 12.9028C116.46 13.7479 116.822 14.8344 116.943 16.1624C117.093 17.4904 117.169 19.4825 117.169 22.1385V23.9494H106.122V19.8295ZM107.662 34C104.885 34 102.697 33.7736 101.097 33.3209C99.5276 32.838 98.3505 32.0834 97.5657 31.0572C96.8715 30.1518 96.4188 29.035 96.2075 27.707C95.9963 26.3488 95.8906 24.4927 95.8906 22.1385C95.8906 19.9654 95.9661 18.245 96.117 16.9773C96.2679 15.6795 96.5848 14.5779 97.0677 13.6724C97.611 12.6764 98.441 11.9068 99.5577 11.3635C100.705 10.79 102.259 10.4279 104.221 10.2769V23.9494C104.221 24.9756 104.266 25.715 104.357 26.1678C104.447 26.5903 104.658 26.9072 104.99 27.1185C105.353 27.3599 105.911 27.4958 106.666 27.5259C107.631 27.5863 108.658 27.6165 109.744 27.6165C111.676 27.6165 113.079 27.5712 113.955 27.4807L116.263 27.2996V33.1398C115.056 33.502 113.396 33.7434 111.283 33.8642C110.257 33.9547 109.05 34 107.662 34Z" fill="#161616"/>
<path d="M83.0275 0H91.403V33.6378H83.0275V0ZM76.5082 33.9547C75.301 33.9547 74.2597 33.7585 73.3844 33.3662C72.5393 32.9738 71.8602 32.34 71.3471 31.4647C70.7737 30.5593 70.3511 29.352 70.0795 27.8429C69.838 26.3338 69.7173 24.4474 69.7173 22.1838C69.7173 17.747 70.2606 14.6383 71.3471 12.8575C72.3733 11.107 74.0937 10.2317 76.5082 10.2317C77.5948 10.2317 78.4852 10.3222 79.1793 10.5033C79.8735 10.6542 80.5224 10.9711 81.1261 11.4541V17.2037H80.6281C79.9641 17.2037 79.4812 17.249 79.1793 17.3395C78.9077 17.3999 78.6964 17.5659 78.5455 17.8376C78.3946 18.1696 78.3041 18.6525 78.2739 19.2863C78.2437 19.739 78.2286 20.6747 78.2286 22.0932C78.2286 23.5118 78.2437 24.4474 78.2739 24.9001C78.3041 25.534 78.3946 26.0169 78.5455 26.3489C78.6964 26.6507 78.9379 26.8318 79.2699 26.8921C79.6924 26.9525 80.1452 26.9827 80.6281 26.9827H81.1261V32.7324C80.5224 33.1851 79.8433 33.502 79.0888 33.6831C78.3644 33.8642 77.5042 33.9547 76.5082 33.9547Z" fill="#41938F"/>
<path d="M56.8669 0H65.2424V6.51931H56.8669V0ZM56.8669 10.5486H65.2424V33.6378H56.8669V10.5486Z" fill="#41938F"/>
<path d="M36.8143 33.9548C34.098 33.9548 32.2719 33.1248 31.3363 31.4648C30.9138 30.7405 30.627 29.8652 30.4761 28.839C30.3252 27.7826 30.2498 26.4999 30.2498 24.9908V10.5487H38.6253V21.4595C38.6253 23.0591 38.6403 24.1155 38.6705 24.6286C38.7309 25.3832 38.8214 25.9264 38.9422 26.2584C39.0629 26.5904 39.2591 26.8017 39.5307 26.8922C39.8024 26.9526 40.2853 26.9828 40.9794 26.9828H41.4322V32.6419C40.2551 33.5172 38.7158 33.9548 36.8143 33.9548ZM43.3336 10.5487H51.7091V33.6379H43.3336V10.5487Z" fill="#41938F"/>
<path d="M11.1371 2.21823C12.3444 2.15787 13.3404 2.12769 14.1252 2.12769C16.8415 2.12769 19.3316 2.30878 21.5952 2.67096C22.7421 2.79169 23.8438 2.97278 24.9001 3.21424V9.68827C23.6325 9.56754 22.6818 9.46191 22.0479 9.37136C21.5348 9.34118 20.7048 9.26573 19.5579 9.145C18.411 9.08463 17.6565 9.05445 17.2943 9.05445C15.4532 9.05445 14.095 9.09972 13.2197 9.19027C12.3746 9.25063 11.6804 9.43173 11.1371 9.73355V2.21823ZM14.1252 33.9999C11.107 33.9999 8.69241 33.7735 6.88149 33.3208C5.10075 32.868 3.71238 32.0682 2.71638 30.9213C1.72037 29.7744 1.0111 28.1898 0.588549 26.1676C0.196183 24.1454 0 21.4442 0 18.0638C0 15.1965 0.135819 12.8423 0.407457 11.0012C0.679094 9.16009 1.14692 7.65099 1.81092 6.47389C2.5051 5.26661 3.44075 4.34606 4.61784 3.71224C5.79494 3.07842 7.33422 2.64078 9.23569 2.39932V18.0638C9.23569 20.2067 9.29605 21.8516 9.41678 22.9985C9.5375 24.1153 9.76387 24.9754 10.0959 25.5791C10.4581 26.2129 10.9711 26.6505 11.6352 26.892C12.3293 27.1335 13.3103 27.2542 14.5779 27.2542V33.9999H14.1252ZM16.4794 21.6856H13.265V15.121H25.0359V32.868C23.6174 33.2 21.8518 33.4566 19.739 33.6377C18.7128 33.7886 17.6263 33.8791 16.4794 33.9093V21.6856Z" fill="#41938F"/>
</svg>
